<svg width="43" height="33" viewBox="0 0 43 33" fill="none" xmlns="http://www.w3.org/2000/svg">
<rect width="43" height="33" fill="#E5E5E5"/>
<g clip-path="url(#clip0)">
<rect width="43" height="33" fill="#1A1C1F"/>
<path d="M21.625 4C12.25 4 4.24375 9.18333 1 16.5C4.24375 23.8167 12.25 29 21.625 29C31 29 39.0062 23.8167 42.25 16.5C39.0062 9.18333 31 4 21.625 4ZM21.625 24.8333C16.45 24.8333 12.25 21.1 12.25 16.5C12.25 11.9 16.45 8.16667 21.625 8.16667C26.8 8.16667 31 11.9 31 16.5C31 21.1 26.8 24.8333 21.625 24.8333ZM21.625 11.5C18.5125 11.5 16 13.7333 16 16.5C16 19.2667 18.5125 21.5 21.625 21.5C24.7375 21.5 27.25 19.2667 27.25 16.5C27.25 13.7333 24.7375 11.5 21.625 11.5Z" fill="#AAAAAA"/>
<path d="M12 3.8774L16.0604 1.02104L31.1456 27.6014L27.0768 29.8797L12 3.8774Z" fill="#1A1C1F"/>
<path d="M9.13318 4.32334L13.2551 1.5L30 30L25.8281 33.1164L9.13318 4.32334Z" fill="#C4C4C4"/>
</g>
<defs>
<clipPath id="clip0">
<rect width="43" height="33" fill="white"/>
</clipPath>
</defs>
</svg>
